<?xml version="1.0" encoding="UTF-8" standalone="no"?>
<!-- Created with Inkscape (http://www.inkscape.org/) -->

<svg
   width="189.58894mm"
   height="189.58948mm"
   viewBox="0 0 189.58894 189.58948"
   version="1.1"
   id="svg5"
   inkscape:version="1.2.2 (b0a8486541, 2022-12-01)"
   sodipodi:docname="30day.svg"
   xmlns:inkscape="http://www.inkscape.org/namespaces/inkscape"
   xmlns:sodipodi="http://sodipodi.sourceforge.net/DTD/sodipodi-0.dtd"
   xmlns="http://www.w3.org/2000/svg"
   xmlns:svg="http://www.w3.org/2000/svg">
  <sodipodi:namedview
     id="namedview7"
     pagecolor="#505050"
     bordercolor="#eeeeee"
     borderopacity="1"
     inkscape:showpageshadow="0"
     inkscape:pageopacity="0"
     inkscape:pagecheckerboard="0"
     inkscape:deskcolor="#505050"
     inkscape:document-units="mm"
     showgrid="false"
     inkscape:zoom="0.77593294"
     inkscape:cx="181.07235"
     inkscape:cy="570.28124"
     inkscape:window-width="1920"
     inkscape:window-height="1080"
     inkscape:window-x="0"
     inkscape:window-y="0"
     inkscape:window-maximized="1"
     inkscape:current-layer="layer1" />
  <defs
     id="defs2" />
  <g
     inkscape:label="Layer 1"
     inkscape:groupmode="layer"
     id="layer1"
     transform="translate(-11.629264,-47.397105)">
    <path
       id="path180"
       style="fill:#f27880;fill-opacity:1;stroke-width:0.264583"
       d="m 106.42399,47.397107 a 94.794487,94.794487 0 0 0 -94.794726,94.794733 94.794487,94.794487 0 0 0 94.794726,94.79473 94.794487,94.794487 0 0 0 94.79422,-94.79473 94.794487,94.794487 0 0 0 -94.79422,-94.794733 z m 0,17.39067 A 77.404129,77.404129 0 0 1 178.5307,114.23075 H 34.317285 A 77.404129,77.404129 0 0 1 106.42399,64.787777 Z M 21.295341,136.19272 c 0.84979,0 1.5844,0.12919 2.204517,0.38757 0.625858,0.25839 1.102603,0.62316 1.429886,1.09399 0.333026,0.46509 0.499712,1.00465 0.499712,1.61903 0,0.70624 -0.223932,1.29495 -0.671794,1.76578 -0.447862,0.47083 -1.088249,0.78646 -1.920813,0.94723 v 0.0346 c 0.901466,0.10336 1.610755,0.39923 2.127519,0.88729 0.516764,0.48231 0.775146,1.09077 0.775146,1.82573 0,1.0852 -0.390617,1.92925 -1.171505,2.53214 -0.775146,0.60289 -1.848696,0.90434 -3.220992,0.90434 -1.320619,0 -2.368848,-0.28727 -3.143994,-0.86145 -0.769404,-0.57992 -1.219793,-1.41536 -1.351855,-2.50631 l 2.462899,-0.21497 c 0.143545,1.07946 0.818383,1.61902 2.024165,1.61902 0.602892,0 1.07355,-0.14337 1.412317,-0.43046 0.338768,-0.29283 0.508496,-0.68902 0.508496,-1.18856 0,-0.49954 -0.209749,-0.88154 -0.628902,-1.14567 -0.413411,-0.26412 -1.007691,-0.39635 -1.782837,-0.39635 H 20.00343 v -1.95492 h 0.7922 c 0.700502,0 1.237536,-0.13224 1.610754,-0.39636 0.378961,-0.26987 0.568441,-0.64274 0.568441,-1.11931 0,-0.43064 -0.158073,-0.78376 -0.473873,-1.05937 -0.310058,-0.27561 -0.726513,-0.41341 -1.249019,-0.41341 -0.493797,0 -0.901123,0.11753 -1.222665,0.35295 -0.321542,0.22967 -0.505453,0.59698 -0.551387,1.10226 l -2.420007,-0.17209 c 0.12632,-1.02778 0.559483,-1.82015 1.300179,-2.37711 0.746437,-0.55696 1.725763,-0.83561 2.937288,-0.83561 z m 10.671183,0 c 1.435456,0 2.500393,0.49954 3.195154,1.49862 0.694761,0.99907 1.042314,2.49517 1.042314,4.48758 0,1.94648 -0.367822,3.4304 -1.102775,4.45244 -0.734954,1.02204 -1.802934,1.53324 -3.203939,1.53324 -1.406747,0 -2.468641,-0.50815 -3.186369,-1.52446 -0.711986,-1.02204 -1.068152,-2.509 -1.068152,-4.46122 0,-2.02112 0.347553,-3.52278 1.042314,-4.50464 0.700502,-0.98759 1.794321,-1.48156 3.281453,-1.48156 z m 52.890829,0 c 1.504357,0 2.658465,0.49701 3.462321,1.49035 0.803855,0.99333 1.205611,2.4803 1.205611,4.46123 0,1.98092 -0.401756,3.47954 -1.205611,4.49584 -0.803856,1.01631 -1.957964,1.52446 -3.462321,1.52446 -1.504358,0 -2.661509,-0.50815 -3.471106,-1.52446 -0.803855,-1.0163 -1.205611,-2.51492 -1.205611,-4.49584 0,-1.98093 0.401756,-3.4679 1.205611,-4.46123 0.809597,-0.99334 1.966748,-1.49035 3.471106,-1.49035 z m 10.584883,0 c 1.286169,0 2.290817,0.25586 3.014287,0.76688 0.723469,0.50528 1.191601,1.29157 1.404048,2.35954 l -2.463415,0.25012 c -0.25264,-1.05075 -0.921392,-1.57613 -2.006596,-1.57613 -0.608633,0 -1.073722,0.11449 -1.395264,0.34416 -0.321542,0.22393 -0.482141,0.54869 -0.482141,0.97359 0,0.28135 0.07752,0.51642 0.232544,0.7059 0.155029,0.18373 0.364262,0.34181 0.628385,0.47387 0.269866,0.12632 0.815512,0.29553 1.636593,0.50798 1.079463,0.26412 1.90933,0.56 2.489254,0.88728 0.579924,0.32155 1.004475,0.71216 1.274341,1.17151 0.269868,0.45934 0.405138,0.98168 0.405138,1.56734 0,1.10243 -0.42202,1.96928 -1.266068,2.60088 -0.838306,0.62586 -2.007113,0.93896 -3.505729,0.93896 -1.349328,0 -2.448717,-0.28422 -3.298507,-0.85266 -0.849789,-0.56844 -1.395436,-1.39527 -1.636592,-2.48047 l 2.45463,-0.31884 c 0.132062,0.53973 0.40767,0.96784 0.826823,1.28364 0.419153,0.31006 0.993681,0.46509 1.722893,0.46509 0.75792,0 1.317749,-0.12058 1.679484,-0.36174 0.367476,-0.24115 0.55087,-0.61759 0.55087,-1.12861 0,-0.37896 -0.160599,-0.69763 -0.482141,-0.95602 -0.321542,-0.26412 -0.789673,-0.47083 -1.404048,-0.62011 -1.234492,-0.29858 -2.106906,-0.55696 -2.617928,-0.77515 -0.505281,-0.22393 -0.91008,-0.4737 -1.214397,-0.74931 -0.304316,-0.27561 -0.539904,-0.5968 -0.706416,-0.96428 -0.160772,-0.37322 -0.241329,-0.78967 -0.241329,-1.24902 0,-1.00482 0.402272,-1.80023 1.206128,-2.3859 0.809597,-0.58567 1.874534,-0.8785 3.195153,-0.8785 z m 21.368204,0 c 1.03353,0 1.87758,0.267 2.53215,0.80099 0.65456,0.53398 1.13688,1.34358 1.44694,2.42879 l -2.36007,0.46509 c -0.30431,-1.13114 -0.83526,-1.69654 -1.59318,-1.69654 -0.77515,0 -1.34663,0.31006 -1.71411,0.93017 -0.36173,0.62012 -0.5426,1.62224 -0.5426,3.00602 0,1.28043 0.19252,2.26785 0.57723,2.96261 0.3847,0.69476 0.97036,1.04232 1.75699,1.04232 0.30432,0 0.61742,-0.0578 0.93896,-0.1726 0.32729,-0.11484 0.61151,-0.26987 0.85267,-0.46509 v -2.02365 h -2.36007 v -1.87792 h 4.68551 v 4.80591 c -1.39527,1.17707 -2.8108,1.76578 -4.24626,1.76578 -1.49861,0 -2.66995,-0.52538 -3.51399,-1.57613 -0.84405,-1.0565 -1.26608,-2.54346 -1.26608,-4.46123 0,-3.95611 1.60197,-5.93452 4.80591,-5.93452 z m 53.01124,0 c 1.06797,0 1.96117,0.28169 2.6789,0.84439 0.72347,0.5627 1.25442,1.39814 1.59319,2.50631 l -2.3425,0.56844 c -0.16651,-0.60863 -0.41628,-1.07981 -0.7493,-1.41283 -0.33303,-0.33877 -0.71503,-0.50798 -1.14567,-0.50798 -1.56178,0 -2.34249,1.31218 -2.34249,3.93619 0,1.29191 0.20062,2.28795 0.60254,2.98845 0.40193,0.7005 1.0023,1.05058 1.80041,1.05058 0.93018,0 1.6192,-0.70016 2.06706,-2.10116 l 2.35128,0.44752 c -0.76367,2.43453 -2.24506,3.65197 -4.44418,3.65197 -1.61345,0 -2.84507,-0.5112 -3.69486,-1.53324 -0.84405,-1.02779 -1.26608,-2.52893 -1.26608,-4.50412 0,-3.95611 1.63034,-5.93452 4.8917,-5.93452 z m -120.85361,0.18087 h 2.902149 l 3.384806,8.93175 c -0.160771,-1.34933 -0.240812,-2.39755 -0.240812,-3.14399 v -5.78776 h 2.213302 v 11.61893 h -2.98018 l -3.307292,-8.69921 c 0.160771,1.44694 0.241329,2.46324 0.241329,3.04891 v 5.6503 H 48.96807 Z m 13.237435,0 h 2.963127 l 3.806486,11.61893 h -2.532145 l -0.7922,-2.84221 h -3.927409 l -0.792199,2.84221 h -2.540931 z m 7.941118,0 h 4.134114 c 1.475649,0 2.598349,0.3131 3.367753,0.93896 0.775147,0.62012 1.16272,1.53002 1.16272,2.73006 0,0.76941 -0.175298,1.44729 -0.525549,2.03296 -0.350251,0.57992 -0.858403,1.02778 -1.524455,1.34358 -0.66031,0.3158 -1.452682,0.47336 -2.377116,0.47336 h -1.696537 v 4.10001 h -2.54093 z m 55.569217,0 h 2.96313 l 3.80648,11.61893 h -2.53214 l -0.7922,-2.84221 h -3.92741 l -0.7922,2.84221 h -2.54093 z m 7.9499,0 h 4.25452 c 1.51584,0 2.64968,0.29587 3.40186,0.88728 0.75218,0.59141 1.12862,1.44407 1.12862,2.55799 0,0.78663 -0.2128,1.45538 -0.63769,2.00659 -0.4249,0.55122 -1.01309,0.93879 -1.76527,1.16272 l 3.0055,5.00435 h -2.85925 l -2.49753,-4.43591 h -1.49034 v 4.43591 h -2.54042 z m 13.22038,0 h 2.96261 l 3.80701,11.61893 h -2.53215 l -0.7922,-2.84221 h -3.92741 l -0.79271,2.84221 h -2.54042 z m 7.93234,0 h 2.90266 l 3.38481,8.93175 c -0.16077,-1.34933 -0.24133,-2.39755 -0.24133,-3.14399 v -5.78776 h 2.2133 v 11.61893 h -2.97966 l -3.30729,-8.69921 c 0.16077,1.44694 0.24081,2.46324 0.24081,3.04891 v 5.6503 h -2.2133 z m 21.35942,0 h 7.88944 v 1.9637 h -2.67839 v 7.69152 h 2.67839 v 1.96371 h -7.88944 v -1.96371 h 2.6789 v -7.69152 h -2.6789 z m 13.0483,0 h 2.96312 l 3.80649,11.61893 h -2.53215 l -0.7922,-2.84221 h -3.92741 l -0.79219,2.84221 h -2.54094 z m -125.539111,1.56786 c -0.04594,0.24116 -0.132062,0.60289 -0.258382,1.08521 -0.120579,0.47657 -0.511196,1.88045 -1.171505,4.21163 h 2.859774 c -0.671794,-2.36564 -1.06798,-3.78117 -1.188558,-4.24626 -0.114837,-0.46508 -0.195395,-0.81516 -0.241329,-1.05058 z m 63.510331,0 c -0.0459,0.24116 -0.13206,0.60289 -0.25838,1.08521 -0.12058,0.47657 -0.51119,1.88045 -1.1715,4.21163 h 2.85977 c -0.67179,-2.36564 -1.06798,-3.78117 -1.18856,-4.24626 -0.11483,-0.46508 -0.19539,-0.81516 -0.24133,-1.05058 z m 21.17029,0 c -0.0459,0.24116 -0.13206,0.60289 -0.25838,1.08521 -0.12058,0.47657 -0.5112,1.88045 -1.17151,4.21163 h 2.85926 c -0.6718,-2.36564 -1.06798,-3.78117 -1.18856,-4.24626 -0.11484,-0.46508 -0.19488,-0.81516 -0.24081,-1.05058 z m 42.34005,0 c -0.0459,0.24116 -0.13206,0.60289 -0.25838,1.08521 -0.12058,0.47657 -0.5112,1.88045 -1.17151,4.21163 h 2.85978 c -0.6718,-2.36564 -1.06798,-3.78117 -1.18856,-4.24626 -0.11484,-0.46508 -0.1954,-0.81516 -0.24133,-1.05058 z M 31.948954,138.0877 c -0.493797,0 -0.872757,0.13476 -1.136881,0.40462 -0.264124,0.26987 -0.456131,0.7005 -0.576709,1.29191 -0.114837,0.58567 -0.1726,1.38413 -0.1726,2.39469 0,0.99908 0.06029,1.79397 0.180868,2.38538 0.12632,0.59141 0.318844,1.02205 0.577226,1.29191 0.258382,0.26987 0.62316,0.40515 1.09399,0.40515 0.666051,0 1.142279,-0.31311 1.42937,-0.93896 0.287091,-0.62586 0.430981,-1.67357 0.430981,-3.14348 0,-1.01056 -0.06029,-1.80902 -0.180867,-2.39469 -0.120578,-0.59141 -0.307532,-1.02204 -0.560173,-1.29191 -0.25264,-0.26986 -0.614375,-0.40462 -1.085205,-0.40462 z m 52.908399,0.10335 c -1.401005,0 -2.101681,1.31775 -2.101681,3.95325 0,1.32061 0.175298,2.32274 0.52555,3.00601 0.355993,0.67754 0.88137,1.01596 1.576131,1.01596 0.69476,0 1.217095,-0.33842 1.567346,-1.01596 0.350251,-0.68327 0.525549,-1.6854 0.525549,-3.00601 0,-2.6355 -0.697632,-3.95325 -2.092895,-3.95325 z m -12.1698,0.15503 v 3.59151 h 1.377694 c 0.75792,0 1.312179,-0.15503 1.66243,-0.46509 0.350252,-0.3158 0.52555,-0.77784 0.52555,-1.38648 0,-0.62586 -0.189481,-1.07119 -0.568441,-1.33532 -0.373219,-0.26986 -0.93609,-0.40462 -1.688269,-0.40462 z m 63.518607,0 v 3.23856 h 1.51618 c 1.44694,0 2.17041,-0.55426 2.17041,-1.66243 0,-0.53973 -0.17834,-0.93592 -0.53433,-1.18856 -0.35599,-0.25838 -0.92444,-0.38757 -1.70532,-0.38757 z m -105.21322,2.7218 h 1.852084 v 2.14457 H 30.99294 Z m 3.856612,30.44878 H 177.99844 A 77.404129,77.404129 0 0 1 106.42399,219.5959 77.404129,77.404129 0 0 1 34.849552,171.51666 Z" />
  </g>
</svg>
